<svg width="22" height="30" viewBox="0 0 22 30" fill="none" xmlns="http://www.w3.org/2000/svg">
<path d="M11.8304 29.3987C12.8071 25.2522 11.6676 21.1793 11.3044 17.0375C11.1103 14.8116 11.4062 12.5889 11.6754 10.3802C11.9775 7.90075 12.4941 5.45417 13.5444 3.17508C13.6367 2.97158 13.3362 2.7947 13.2423 2.99976C11.5158 6.74555 10.9178 11.3069 10.8834 15.4095C10.8442 20.1008 12.5989 24.612 11.4923 29.3064C11.4406 29.5255 11.7787 29.6179 11.8304 29.3987Z" fill="#1A1311"/>
<path d="M12.1356 24.3788C12.0667 23.316 11.3076 22.5036 10.5985 21.7726C9.39633 20.5313 7.95937 19.5295 6.65234 18.4072C4.88511 16.8888 3.54677 14.4563 0.912348 14.5925C0.688509 14.605 0.686944 14.9385 0.912348 14.9431C2.18338 14.9713 2.99734 16.2157 3.79878 17.0469C4.84128 18.1301 5.87125 19.2321 6.96071 20.2699C8.60898 21.8383 11.3404 22.9748 11.882 25.3681C11.9321 25.5888 12.2687 25.4949 12.2201 25.2758C11.6425 22.729 8.6575 21.4016 6.91062 19.7393C5.72255 18.6075 4.57517 17.4007 3.47476 16.1844C2.77507 15.4127 2.01589 14.6176 0.912348 14.5925V14.9431C3.39806 14.8132 4.75675 17.1941 6.40502 18.6545C7.30194 19.4497 8.26461 20.1729 9.18032 20.9461C10.1696 21.7789 11.6958 22.981 11.7866 24.3788C11.8006 24.6027 12.1497 24.6042 12.1356 24.3788Z" fill="#1A1311"/>
<path d="M12.001 22.2234C11.9838 19.6594 14.6057 17.781 15.7264 15.6991C16.4387 14.3765 16.8519 13.2494 18.1574 12.3588C19.1967 11.6497 20.2784 11.0956 21.2019 10.2206C21.3678 10.064 21.1236 9.8308 20.9546 9.97324C20.4005 10.4397 20.0796 11.0502 19.6068 11.5902C19.1639 12.0942 18.7037 12.5889 18.3014 13.1258C17.4154 14.3076 17.2557 15.6584 16.5404 16.9138C16.1381 17.6198 15.3038 18.2099 14.7293 18.7781C14.1455 19.3557 13.5929 19.9615 13.0764 20.6001C12.4549 21.3687 11.6394 22.2938 11.7412 23.3457C11.7631 23.568 12.1121 23.5711 12.0902 23.3457C11.9619 22.0058 13.582 20.489 14.4053 19.6093C15.2553 18.6998 16.3682 17.9219 16.9912 16.8293C17.5766 15.8009 17.6706 14.6191 18.364 13.622C18.8038 12.988 19.3454 12.4167 19.8542 11.8375C20.3206 11.3069 20.6572 10.6792 21.2019 10.2206C21.1189 10.1392 21.036 10.0562 20.9546 9.97324C19.8761 10.997 18.5393 11.598 17.3763 12.4981C16.398 13.2557 15.9174 14.4312 15.4243 15.5238C14.4006 17.7935 11.6316 19.4762 11.6519 22.2234C11.6535 22.4488 12.0026 22.4488 12.001 22.2234Z" fill="#1A1311"/>
<path d="M11.2105 14.6629C10.2917 12.5325 9.15214 10.5915 7.91242 8.63802C6.90436 7.04923 6.11231 5.28356 4.50474 4.1988C4.3169 4.07201 4.14158 4.37568 4.32786 4.5009C5.95108 5.59662 6.75878 7.47499 7.7778 9.07944C8.96117 10.9422 10.0318 12.808 10.9084 14.8398C10.9976 15.0464 11.2982 14.868 11.2105 14.6629Z" fill="#1A1311"/>
<path d="M3.6579 3.47251C3.23527 4.05324 4.43743 4.69658 4.78806 4.05793C5.21069 3.28623 3.87391 2.88865 3.49198 3.54451C3.37771 3.73861 3.67982 3.91549 3.79252 3.71983C3.93809 3.47251 4.57674 3.47877 4.49691 3.84662C4.42803 4.16124 3.80348 3.8654 3.96001 3.64939C4.09306 3.46624 3.78939 3.2925 3.6579 3.47251Z" fill="#1A1311"/>
<path d="M3.61877 4.43831C3.27909 4.49936 3.21492 4.82964 3.34797 5.10513C3.49511 5.41037 3.86295 5.58098 4.18697 5.48863C4.51412 5.39784 4.74892 5.08948 4.52351 4.77642C4.32942 4.50875 3.94592 4.33813 3.6172 4.36004C3.39336 4.37726 3.3918 4.72633 3.6172 4.71067C3.80347 4.69658 3.99757 4.76702 4.14314 4.88129C4.19793 4.92512 4.25272 4.97834 4.26993 5.04721C4.27776 5.07539 4.16193 5.12705 4.13845 5.13644C3.97096 5.20375 3.80034 5.14426 3.6939 5.00026C3.61877 4.89851 3.57494 4.7999 3.71112 4.77485C3.93339 4.73572 3.83947 4.39761 3.61877 4.43831Z" fill="#1A1311"/>
<path d="M5.26705 3.5993C4.99468 3.77775 4.85537 4.11272 5.01034 4.41796C5.17 4.73102 5.5128 4.80929 5.82273 4.68876C6.12171 4.57292 6.30485 4.26769 6.25163 3.94993C6.19684 3.61026 5.90256 3.40677 5.56915 3.40833C5.34375 3.4099 5.34375 3.75896 5.56915 3.75896C5.89004 3.7574 6.04814 4.13933 5.76168 4.3303C5.42514 4.55571 5.10582 4.12212 5.44393 3.90141C5.63176 3.77775 5.45645 3.47564 5.26705 3.5993Z" fill="#1A1311"/>
<path d="M3.85201 6.05372C3.6673 6.23216 3.53425 6.48574 3.59217 6.74558C3.65791 7.04456 3.99758 7.0743 4.24177 7.02264C4.50474 6.96629 4.73328 6.72054 4.75832 6.45131C4.78806 6.13042 4.51883 5.96449 4.23707 5.93162C4.01323 5.90501 4.01636 6.25408 4.23707 6.28069C4.56266 6.31982 4.34978 6.63288 4.14785 6.6861C4.06489 6.70802 3.93184 6.72367 3.92714 6.63132C3.91775 6.50453 4.01323 6.384 4.09933 6.30104C4.26212 6.1445 4.0148 5.89719 3.85201 6.05372Z" fill="#1A1311"/>
<path d="M4.79119 5.36026C4.61431 5.49175 4.51413 5.69211 4.58613 5.91282C4.65344 6.12257 4.86632 6.25875 5.0839 6.23214C5.32496 6.2024 5.53315 6.01613 5.49714 5.75942C5.46427 5.51992 5.21852 5.39157 4.99938 5.38374C4.77241 5.37592 4.77397 5.72498 4.99938 5.73437C5.05416 5.73594 5.13243 5.75629 5.15278 5.80951C5.15904 5.82986 5.1606 5.82203 5.14025 5.84551C5.11364 5.87525 5.06981 5.88464 5.03225 5.88777C4.90389 5.89247 4.87572 5.73124 4.96807 5.66237C5.0432 5.60602 5.08234 5.5121 5.03068 5.42287C4.98685 5.34774 4.86789 5.30235 4.79119 5.36026Z" fill="#1A1311"/>
<path d="M5.28426 6.62039C4.96024 6.64387 4.74892 6.8818 4.80057 7.20895C4.8444 7.52045 5.10738 7.75368 5.41887 7.76933C5.78515 7.78812 6.14361 7.48758 6.07474 7.1119C6.01056 6.75345 5.56758 6.52804 5.23573 6.54839C5.01189 6.56248 5.01189 6.91311 5.23573 6.89902C5.42357 6.8865 5.60984 6.97103 5.71159 7.13538C5.81959 7.31383 5.55975 7.41714 5.41887 7.4187C5.1966 7.4234 4.99154 6.99137 5.28426 6.96946C5.50653 6.95381 5.5081 6.60474 5.28426 6.62039Z" fill="#1A1311"/>
<path d="M6.20623 4.64968C6.03718 4.861 5.9276 5.15841 6.06379 5.41668C6.21092 5.69687 6.54747 5.75322 6.83235 5.67496C7.08124 5.60608 7.25342 5.39164 7.2722 5.13806C7.29568 4.84221 7.03115 4.63716 6.7807 4.55733C6.56625 4.48689 6.4739 4.82499 6.68834 4.89387C6.78852 4.92674 6.91218 4.98935 6.92314 5.10988C6.93253 5.22415 6.83705 5.30398 6.73843 5.33842C6.62573 5.37755 6.45198 5.37911 6.37998 5.26798C6.30641 5.15528 6.37998 4.98935 6.45355 4.897C6.59286 4.72325 6.34711 4.4728 6.20623 4.64968Z" fill="#1A1311"/>
<path d="M6.776 4.55108C6.59442 4.42586 6.36276 4.47282 6.19527 4.59804C6.11857 4.65596 6.07944 4.74831 6.13266 4.83754C6.17648 4.91267 6.29545 4.95806 6.37215 4.90015C6.44259 4.84693 6.51772 4.79684 6.59912 4.85319C6.78539 4.98154 6.9607 4.67787 6.776 4.55108Z" fill="#1A1311"/>
<path d="M6.92002 6.05374C6.69618 6.2901 6.68052 6.61255 6.9795 6.791C7.25186 6.95379 7.6291 6.9037 7.8639 6.70178C8.13157 6.46855 8.12218 6.09913 7.83416 5.9019C7.58214 5.72972 7.17986 5.73755 6.93097 5.9066C6.74627 6.03339 6.92158 6.33706 7.10785 6.2087C7.24717 6.11479 7.41622 6.11322 7.57432 6.16175C7.71519 6.20557 7.7512 6.2948 7.65728 6.41063C7.5571 6.53586 7.38648 6.5562 7.23777 6.5202C7.08124 6.48263 7.06089 6.41376 7.16734 6.30106C7.3223 6.13827 7.07498 5.88938 6.92002 6.05374Z" fill="#1A1311"/>
<path d="M6.08413 7.9932C5.94639 8.29531 6.0403 8.58176 6.30171 8.77742C6.52555 8.94491 6.86835 8.94178 7.06089 8.73046C7.27846 8.49254 7.22681 8.16539 6.9701 7.98537C6.73843 7.82258 6.40815 7.76467 6.14674 7.88363C5.94169 7.97598 6.12013 8.27652 6.32362 8.18417C6.47859 8.1153 6.95601 8.24209 6.82139 8.46906C6.68052 8.70698 6.27823 8.40644 6.38624 8.17008C6.47859 7.96659 6.17805 7.78815 6.08413 7.9932Z" fill="#1A1311"/>
<path d="M7.60718 7.18394C7.38961 7.49075 7.53831 7.84607 7.83572 8.02921C8.1613 8.23114 8.5495 8.10904 8.73421 7.78659C9.10206 7.14168 7.93903 6.95228 7.54457 7.07907C7.33169 7.14951 7.42248 7.48761 7.63849 7.41718C7.78093 7.37022 7.94373 7.37961 8.09086 7.40465C8.18322 7.42031 8.40706 7.45787 8.44306 7.56588C8.45871 7.61597 8.37262 7.69424 8.34444 7.72398C8.28183 7.78972 8.18478 7.78659 8.10495 7.76781C7.90929 7.71928 7.78563 7.53457 7.90929 7.36082C8.03921 7.17612 7.73554 7.0008 7.60718 7.18394Z" fill="#1A1311"/>
<path d="M2.83142 2.77592C2.79228 3.04359 2.89403 3.30656 3.18518 3.36135C3.43249 3.40831 3.69234 3.29404 3.82226 3.07803C4.18697 2.47225 3.16483 1.99953 2.82515 2.56774C2.70932 2.76183 3.01143 2.93715 3.12726 2.74462C3.24466 2.54739 3.64694 2.69296 3.50763 2.92306C3.46224 2.9982 3.35579 3.02324 3.27596 3.02324C3.19613 3.02168 3.15544 2.96532 3.16952 2.86828C3.20083 2.64757 2.86429 2.55365 2.83142 2.77592Z" fill="#1A1311"/>
<path d="M11.9478 7.55797C11.4485 5.9817 10.3324 4.67936 10.0209 3.03735C9.97863 2.81664 9.64209 2.91056 9.68279 3.13127C9.99585 4.77798 11.1104 6.07405 11.6097 7.65032C11.6786 7.86477 12.0167 7.77398 11.9478 7.55797Z" fill="#1A1311"/>
<path d="M9.28206 0.822456C8.77177 0.930462 8.78586 1.78512 9.33685 1.78669C9.62174 1.78669 9.86749 1.50806 9.77357 1.22944C9.67652 0.94455 9.34624 0.806803 9.06762 0.869415C8.84847 0.919505 8.94083 1.25761 9.15997 1.20752C9.26484 1.18404 9.37755 1.231 9.4339 1.32336C9.44955 1.34683 9.45425 1.36405 9.44172 1.37814C9.42607 1.39849 9.40103 1.41727 9.37755 1.42667C9.35563 1.43449 9.3165 1.43606 9.32589 1.43762C9.30241 1.43449 9.29459 1.4298 9.27737 1.40319C9.26171 1.37814 9.25389 1.3484 9.25389 1.31083C9.25076 1.22787 9.2805 1.17935 9.37442 1.159C9.59513 1.1136 9.50277 0.775496 9.28206 0.822456Z" fill="#1A1311"/>
<path d="M9.05822 2.18739C8.9283 2.45819 8.99248 2.74933 9.25545 2.90899C9.52938 3.07805 9.85966 2.94187 10.0178 2.68516C10.168 2.44097 10.0663 2.1733 9.83305 2.03242C9.62017 1.90563 9.32746 1.87902 9.09109 1.94007C8.87351 1.99798 8.96587 2.33453 9.18501 2.27817C9.31493 2.24374 9.73913 2.25313 9.7407 2.4394C9.74226 2.55523 9.59669 2.64915 9.49338 2.63037C9.36346 2.60532 9.30397 2.4801 9.36033 2.36427C9.45738 2.16234 9.15684 1.9839 9.05822 2.18739Z" fill="#1A1311"/>
<path d="M8.17696 3.04361C8.03295 3.34259 8.12217 3.64156 8.39454 3.82783C8.65438 4.00315 9.00657 3.94836 9.21633 3.72609C9.4386 3.49129 9.37912 3.19075 9.13023 3.01074C8.9017 2.84482 8.5589 2.83699 8.31158 2.95752C8.10809 3.05614 8.28653 3.35824 8.48846 3.25963C8.61838 3.19545 9.15215 3.2565 8.96901 3.47877C8.78587 3.70104 8.33975 3.51008 8.47906 3.22049C8.57611 3.01857 8.27401 2.84012 8.17696 3.04361Z" fill="#1A1311"/>
<path d="M10.2745 2.34244C10.1054 2.55375 10.0678 2.81673 10.2682 3.02335C10.4686 3.22997 10.7785 3.19397 11.0023 3.05622C11.2074 2.93099 11.3076 2.6915 11.2105 2.4661C11.115 2.24539 10.8646 2.14208 10.6361 2.14834C10.4107 2.1546 10.4107 2.50523 10.6361 2.49897C10.7848 2.49427 10.9976 2.59602 10.8427 2.74159C10.766 2.8136 10.6439 2.84647 10.5484 2.79951C10.4576 2.75255 10.4639 2.66176 10.5218 2.58976C10.5813 2.51462 10.5954 2.41601 10.5218 2.34244C10.4607 2.28139 10.334 2.2673 10.2745 2.34244Z" fill="#1A1311"/>
<path d="M9.01439 4.29275C8.82656 4.51502 8.81404 4.79991 9.01596 5.01905C9.21319 5.23193 9.5419 5.20219 9.74696 5.02375C9.94576 4.85156 9.97863 4.59172 9.86905 4.36006C9.75166 4.1143 9.46051 4.02195 9.21006 4.08143C8.99092 4.13308 9.08327 4.47119 9.30241 4.41797C9.48086 4.37571 9.65617 4.54946 9.55443 4.72164C9.42294 4.94392 9.09266 4.74043 9.26171 4.54007C9.40729 4.36945 9.15997 4.12056 9.01439 4.29275Z" fill="#1A1311"/>
<path d="M10.3199 3.71049C10.1649 3.92337 10.1727 4.21608 10.3809 4.3914C10.6157 4.59176 10.9209 4.51819 11.1354 4.32879C11.3358 4.15191 11.3232 3.87485 11.1417 3.69327C10.9585 3.51013 10.6674 3.4616 10.4247 3.51169C10.204 3.55709 10.2964 3.89363 10.5171 3.84824C10.6204 3.82789 11.0133 3.88737 10.9194 4.04703C10.8677 4.13625 10.7315 4.1926 10.6376 4.14721C10.5187 4.08929 10.5609 3.97033 10.622 3.88737C10.755 3.70423 10.4514 3.53048 10.3199 3.71049Z" fill="#1A1311"/>
<path d="M9.8941 5.31642C9.76731 5.45417 9.69843 5.65923 9.79548 5.83454C9.90192 6.02864 10.132 6.05994 10.3199 5.97229C10.503 5.8862 10.6361 5.69836 10.5609 5.49174C10.4873 5.28981 10.2901 5.19276 10.0898 5.16928C9.99428 5.15833 9.91445 5.25851 9.91445 5.3446C9.91445 5.44791 9.99428 5.50896 10.0898 5.51991C10.1352 5.52461 10.1931 5.54965 10.2212 5.58879C10.2432 5.62009 10.2432 5.61227 10.204 5.63888C10.1805 5.65453 10.1492 5.67018 10.1195 5.67175C10.0772 5.67644 10.0992 5.66392 10.107 5.67644C10.0913 5.65296 10.107 5.60131 10.1414 5.56374C10.2948 5.39782 10.0475 5.1505 9.8941 5.31642Z" fill="#1A1311"/>
<path d="M13.416 1.67555C13.2313 1.90722 13.1734 2.19993 13.3863 2.43473C13.5694 2.63509 13.8856 2.63352 14.0907 2.47386C14.3349 2.28289 14.374 1.94792 14.1768 1.70999C14.003 1.50024 13.6837 1.38754 13.4223 1.48772C13.2141 1.56755 13.3033 1.90565 13.5147 1.82582C13.7322 1.7413 14.1063 1.96357 13.8841 2.19211C13.8168 2.26098 13.7135 2.25472 13.6493 2.2015C13.5601 2.12636 13.5929 2.01053 13.6634 1.92287C13.7228 1.8493 13.7369 1.74912 13.6634 1.67555C13.6023 1.61451 13.4755 1.60042 13.416 1.67555Z" fill="#1A1311"/>
<path d="M14.1877 3.29093C13.9811 3.44277 13.8434 3.68696 13.7933 3.93741C13.7463 4.17377 13.834 4.43987 14.1157 4.43674C14.7528 4.42891 15.0549 3.35041 14.3458 3.20171C14.1267 3.15632 14.0328 3.49286 14.2535 3.53982C14.5681 3.60556 14.3615 4.0595 14.1157 4.08611C14.0844 4.09081 14.1314 4.12837 14.1298 4.10646C14.122 4.04228 14.1392 3.97967 14.158 3.92019C14.194 3.80435 14.2644 3.66661 14.3646 3.59304C14.5431 3.45999 14.3693 3.15632 14.1877 3.29093Z" fill="#1A1311"/>
<path d="M12.2374 2.79162C12.0198 2.94032 11.8836 3.18608 11.8805 3.45061C11.8773 3.73394 12.0996 3.91551 12.3704 3.91082C13.0419 3.89829 13.1014 2.91215 12.4675 2.7744C12.2483 2.72588 12.1544 3.06242 12.3751 3.11094C12.4956 3.13755 12.5645 3.22521 12.5708 3.34887C12.5786 3.49601 12.4706 3.55862 12.3376 3.56175C12.0887 3.56645 12.3172 3.15947 12.4143 3.09372C12.599 2.96693 12.4236 2.66326 12.2374 2.79162Z" fill="#1A1311"/>
<path d="M13.3503 4.65283C13.0732 4.72014 12.8322 4.93146 12.9073 5.23982C12.9809 5.54506 13.344 5.64994 13.6164 5.60298C13.8872 5.55758 14.1017 5.30713 14.097 5.0332C14.0938 4.73266 13.8136 4.56831 13.5397 4.59961C13.3174 4.62309 13.3159 4.97372 13.5397 4.94868C13.5976 4.94242 13.6555 4.93615 13.7072 4.96433C13.7369 4.97998 13.7463 5.01285 13.7479 5.0332C13.7557 5.12712 13.6806 5.21634 13.5804 5.25078C13.4708 5.28991 13.3143 5.268 13.2501 5.16312C13.2313 5.13182 13.2376 5.1146 13.2564 5.08173C13.2893 5.02381 13.3847 5.00503 13.4427 4.98937C13.6618 4.93772 13.5694 4.59961 13.3503 4.65283Z" fill="#1A1311"/>
<path d="M14.3036 2.34556C14.05 2.51617 13.87 2.80263 14.0422 3.09847C14.1909 3.35205 14.5384 3.42719 14.7951 3.30979C15.1019 3.16891 15.2991 2.78854 15.1301 2.47704C14.9704 2.17963 14.5525 2.11389 14.2566 2.19372C14.039 2.2532 14.1314 2.59131 14.349 2.53183C14.5055 2.48956 14.6855 2.50522 14.806 2.62262C14.9234 2.73845 14.7732 2.91689 14.6714 2.98107C14.5712 3.04368 14.4413 3.02177 14.3599 2.94037C14.2535 2.8355 14.3897 2.70871 14.4805 2.64766C14.6652 2.52244 14.4914 2.21877 14.3036 2.34556Z" fill="#1A1311"/>
<path d="M12.2812 1.96196C12.0949 2.2218 12.1184 2.56773 12.3516 2.79001C12.6005 3.0295 12.9668 2.95437 13.2016 2.74148C13.4348 2.5286 13.3863 2.21867 13.2079 1.99483C13.0185 1.75847 12.6772 1.65672 12.3861 1.70368C12.1638 1.73968 12.2577 2.07623 12.4784 2.04022C12.6537 2.01205 13.1218 2.19832 12.9965 2.44094C12.9261 2.57713 12.7211 2.6413 12.599 2.54269C12.4628 2.43312 12.4925 2.26563 12.5833 2.13884C12.7148 1.95413 12.4111 1.78038 12.2812 1.96196Z" fill="#1A1311"/>
<path d="M13.9029 0.562621C13.6571 0.752024 13.4834 1.051 13.5992 1.36563C13.7229 1.69747 14.0813 1.78356 14.3959 1.69747C14.7215 1.60981 14.9532 1.3171 14.8906 0.977429C14.8311 0.651844 14.4648 0.501574 14.169 0.539142C13.9483 0.565752 13.9467 0.916381 14.169 0.888206C14.3208 0.869422 14.4679 0.888206 14.5446 1.03378C14.6151 1.17153 14.4523 1.30301 14.3458 1.34684C14.1987 1.40789 14.014 1.40789 13.931 1.25605C13.8559 1.11831 13.9749 0.944557 14.0797 0.864726C14.2551 0.728544 14.0813 0.424874 13.9029 0.562621Z" fill="#1A1311"/>
<path d="M10.0757 12.2273C9.20849 10.6839 7.1908 10.2753 5.56601 10.1501C5.36878 10.136 5.32652 10.4569 5.51905 10.4945C7.16106 10.8091 8.21452 12.3603 9.9254 12.4902C10.1492 12.5075 10.1477 12.1568 9.9254 12.1412C8.27243 12.0144 7.21741 10.4647 5.61297 10.1564C5.59732 10.2722 5.58166 10.3865 5.56601 10.5007C7.06245 10.615 8.97369 10.9797 9.77357 12.4042C9.8847 12.5998 10.1868 12.4245 10.0757 12.2273Z" fill="#1A1311"/>
<path d="M11.5909 12.1663C12.7304 10.1424 14.482 8.5614 15.6826 6.57816C15.5762 6.56407 15.4697 6.54998 15.3633 6.53746C16.4042 9.139 12.2358 10.0813 11.2888 11.9894C11.1886 12.1914 11.4907 12.3682 11.5909 12.1663C12.5802 10.1737 16.8378 9.28927 15.6998 6.44354C15.6466 6.30736 15.465 6.26196 15.3805 6.40128C14.1799 8.38453 12.4299 9.96549 11.2888 11.9894C11.1777 12.1867 11.4798 12.3635 11.5909 12.1663Z" fill="#1A1311"/>
<path d="M11.5377 19.7894C10.73 18.822 10.0318 17.6715 9.00657 16.9108C7.79189 16.0107 6.2344 15.549 5.48149 14.1355C5.38914 13.9617 5.09016 14.0823 5.1606 14.2701C5.72255 15.7446 6.11388 16.8967 7.43187 17.8531C8.02982 18.2867 8.61681 18.75 9.24293 19.1429C9.98802 19.6078 11.054 19.9897 11.414 20.8616C11.5001 21.0667 11.8382 20.9759 11.7521 20.7677C11.3185 19.7174 10.0945 19.2619 9.19127 18.6968C8.4681 18.246 7.72928 17.67 7.06715 17.1377C6.1624 16.4114 5.8916 15.2109 5.49871 14.1762C5.39227 14.2216 5.28583 14.267 5.17939 14.3108C5.77733 15.4347 6.88557 16.0561 7.96564 16.6525C9.41355 17.4508 10.2588 18.8017 11.2904 20.0367C11.4344 20.2105 11.6817 19.9616 11.5377 19.7894Z" fill="#1A1311"/>
</svg>
